<?xml version="1.0" encoding="UTF-8"?> <svg xmlns="http://www.w3.org/2000/svg" xmlns:xlink="http://www.w3.org/1999/xlink" version="1.1" id="Calque_1" x="0px" y="0px" viewBox="0 0 421.8 385.5" style="enable-background:new 0 0 421.8 385.5;" xml:space="preserve"> <style type="text/css"> .st0{fill:#1D1D1B;} .st1{fill:#009FE3;} .st2{fill:#FBBA00;} .st3{fill:#FFFFFF;} .st4{fill:#E30613;} </style> <g> <path class="st0" d="M7.4,300.2c0,2.7,2.6,3.5,6.7,5.4c6.2,2.8,9,6,9,11.7c0,6.1-4.2,10.2-10.7,10.2h-2.3c-3.3,0-5.8-0.9-7.5-2.7 c-1.9-2-2.7-3.6-2.7-4.2c0-0.1,0.1-0.3,0.4-0.4l5-2.5c0.1,0,0.2-0.1,0.3-0.1c0.4,0,0.5,0.6,1.1,1.7c0.7,1.2,2,2,3.4,2.1h2.3 c2.3,0,4.1-1.9,4.1-4.1c0-2.9-2.4-3.9-6.1-5.7c-6.3-3-9.6-5.6-9.6-11.3c0-6.1,4.3-10.2,10.7-10.2h0.9c2.3-0.1,4.6,0.6,6.5,1.9 c2.2,1.6,3.7,4.2,3.7,4.9c0,0.2-0.1,0.4-0.3,0.5l-5,2.5c-0.1,0-0.2,0.1-0.3,0.1c-0.3,0-0.4-0.4-0.8-0.9c-1.1-1.8-2.1-2.9-3.8-2.9 h-0.9C9.3,296,7.4,297.9,7.4,300.2C7.4,300.1,7.4,300.2,7.4,300.2z"></path> <path class="st0" d="M51.7,326.2c0,0.3-0.2,0.5-0.6,0.5h-5.8c-0.3,0-0.5-0.1-0.6-0.4l-1.7-6c-0.1-0.3-0.2-0.3-0.6-0.3h-8.2 c-0.3,0-0.5,0-0.6,0.3l-1.7,6c-0.1,0.3-0.3,0.4-0.6,0.4h-5.7c-0.4,0-0.6-0.2-0.6-0.5c0-0.1,0.1-0.1,0.1-0.2l10.7-35 c0.1-0.3,0.2-0.4,0.6-0.4h4.1c0.3,0,0.5,0.2,0.6,0.4L51.7,326C51.7,326.1,51.7,326.2,51.7,326.2z M39.1,305.6 c-0.1-0.3-0.3-1.4-0.6-3.2h-0.2c-0.4,1.8-0.6,2.8-0.7,3.2l-2,7.6c0,0.1-0.1,0.2-0.1,0.2c0,0.4,0.2,0.5,0.6,0.5h4.2 c0.4,0,0.6-0.2,0.6-0.5c0-0.1-0.1-0.2-0.1-0.2L39.1,305.6z"></path> <path class="st0" d="M78.2,301.2c0,5.9-4.3,10.2-10.7,10.2h-5.2c-0.4,0-0.6,0.2-0.6,0.6v14.3c0,0.4-0.2,0.6-0.6,0.6h-5.4 c-0.4,0-0.6-0.2-0.6-0.6v-35.1c0-0.4,0.2-0.6,0.6-0.6h11.8C74,290.6,78.2,294.8,78.2,301.2z M71.6,300.7c0-2.3-1.9-4.1-4.1-4.1 h-5.2c-0.4,0-0.6,0.2-0.6,0.6v7.6c0,0.4,0.2,0.6,0.6,0.6h5.2c2.3,0,4.1-1.8,4.1-4.1c0,0,0,0,0,0L71.6,300.7z"></path> <path class="st0" d="M103.8,326.8H83.5c-0.4,0-0.6-0.2-0.6-0.6v-35.1c0-0.4,0.2-0.6,0.6-0.6h20.3c0.3,0,0.5,0.2,0.6,0.5 c0,0,0,0.1,0,0.1v4.9c0,0.4-0.2,0.6-0.6,0.6H90.1c-0.4,0-0.6,0.2-0.6,0.6v7.6c0,0.4,0.2,0.6,0.6,0.6h11.2c0.4,0,0.6,0.2,0.6,0.6 v4.9c0,0.4-0.2,0.6-0.6,0.6H90.1c-0.4,0-0.6,0.2-0.6,0.6v8.2c0,0.4,0.2,0.6,0.6,0.6h13.7c0.3,0,0.6,0.2,0.6,0.5c0,0,0,0.1,0,0.1 v4.9C104.3,326.6,104.2,326.8,103.8,326.8z"></path> <path class="st0" d="M123.1,327.3h-2.8c-6.5,0-10.7-4.1-10.7-10.2v-26c0-0.4,0.2-0.6,0.6-0.6h5.4c0.3,0,0.5,0.2,0.6,0.4 c0,0,0,0.1,0,0.1v26c0,2.3,1.8,4.1,4.1,4.1c0,0,0,0,0,0h2.8c2.2,0,4-1.7,4.1-3.9c0-0.1,0-0.1,0-0.2v-26c0-0.4,0.2-0.6,0.6-0.6h5.5 c0.4,0,0.6,0.2,0.6,0.6v26C133.8,323.2,129.5,327.3,123.1,327.3z"></path> <path class="st0" d="M165.5,326.3c0,0.3-0.2,0.5-0.6,0.5H159c-0.2,0-0.4-0.1-0.5-0.4l-5.1-14.6l-0.5-0.3h-5.1 c-0.4,0-0.6,0.2-0.6,0.6v14.2c0,0.4-0.2,0.6-0.6,0.6h-5.5c-0.4,0-0.6-0.2-0.6-0.6v-35.1c0-0.4,0.2-0.6,0.6-0.6h12.9 c6.6,0,10.7,4.1,10.7,10.7v0.6c-0.1,2.3-1,4.5-2.5,6.1c-1,1-2.4,1.7-2.4,2.2v0.1l5.5,15.8C165.5,326.1,165.5,326.2,165.5,326.3z M158.3,300.7c0-2.3-1.9-4.1-4.1-4.1h-6.3c-0.4,0-0.6,0.2-0.6,0.6v7.6c0,0.4,0.2,0.6,0.6,0.6h6.3c2.3,0,4.1-1.9,4.1-4.1V300.7z"></path> <path class="st0" d="M176.1,300.2c0,2.7,2.6,3.5,6.7,5.4c6.1,2.8,9,6,9,11.7c0,6.1-4.2,10.2-10.7,10.2h-2.3c-3.3,0-5.8-0.9-7.5-2.7 c-1.9-2-2.6-3.6-2.6-4.2c0-0.2,0.2-0.3,0.3-0.4l5-2.5c0.1,0,0.2-0.1,0.3-0.1c0.4,0,0.5,0.6,1.1,1.7c0.7,1.2,2,2,3.4,2.1h2.3 c2.3,0,4.1-1.9,4.1-4.1c0-2.9-2.4-3.9-6.2-5.7c-6.3-3-9.5-5.6-9.5-11.3c0-6.1,4.2-10.2,10.7-10.2h0.9c2.3-0.1,4.6,0.6,6.6,1.9 c2.2,1.6,3.7,4.2,3.7,4.9c0,0.2-0.1,0.4-0.4,0.5l-5,2.5c-0.1,0-0.2,0.1-0.3,0.1c-0.3,0-0.4-0.4-0.8-0.9c-1.1-1.8-2.1-2.9-3.9-2.9 h-0.9C177.9,296,176.1,297.9,176.1,300.2C176.1,300.2,176.1,300.2,176.1,300.2z"></path> <path class="st0" d="M229.9,301.2c0,5.9-4.3,10.2-10.7,10.2h-5.2c-0.4,0-0.6,0.2-0.6,0.6v14.3c0,0.4-0.2,0.6-0.6,0.6h-5.5 c-0.4,0-0.6-0.2-0.6-0.6v-35.1c0-0.4,0.2-0.6,0.6-0.6h11.8C225.7,290.6,229.9,294.8,229.9,301.2z M223.4,300.7 c0-2.3-1.9-4.1-4.1-4.1h-5.2c-0.4,0-0.6,0.2-0.6,0.6v7.6c0,0.4,0.2,0.6,0.6,0.6h5.2c2.3,0,4.1-1.8,4.1-4.1c0,0,0,0,0,0V300.7z"></path> <path class="st0" d="M247.9,327.3h-2.8c-6.5,0-10.7-4.1-10.7-10.2v-17c0-6.1,4.2-10.2,10.7-10.2h2.8c6.4,0,10.7,4.1,10.7,10.2v17 C258.6,323.2,254.4,327.3,247.9,327.3z M252,300.2c0.1-2.2-1.6-4.1-3.9-4.1c-0.1,0-0.1,0-0.2,0h-2.8c-2.3,0-4.1,1.8-4.1,4.1 c0,0,0,0,0,0v17c0,2.3,1.8,4.1,4.1,4.1c0,0,0,0,0,0h2.8c2.2,0,4-1.7,4.1-3.9c0-0.1,0-0.1,0-0.2V300.2z"></path> <path class="st0" d="M293.4,326.8h-5.3c-0.4,0-0.6-0.2-0.6-0.6l0.5-22.4l-6.5,17.7c-0.2,0.2-0.3,0.4-0.5,0.4h-2.9 c-0.2,0-0.4-0.1-0.5-0.4l-6.5-17.7l0.5,22.4c0,0.4-0.2,0.6-0.6,0.6h-5.3c-0.4,0-0.6-0.2-0.6-0.6v-35.1c0-0.4,0.2-0.6,0.6-0.6h4.9 c0.2,0.1,0.4,0.2,0.5,0.3l8.4,22.8l8.4-22.8c0.1-0.1,0.3-0.3,0.5-0.3h5c0.4,0,0.6,0.2,0.6,0.6v35.1 C294,326.6,293.8,326.8,293.4,326.8z"></path> <path class="st0" d="M324.8,301.2c0,5.9-4.3,10.2-10.7,10.2h-5.2c-0.4,0-0.6,0.2-0.6,0.6v14.3c0,0.4-0.2,0.6-0.6,0.6h-5.5 c-0.4,0-0.6-0.2-0.6-0.6v-35.1c0-0.4,0.2-0.6,0.6-0.6h11.8C320.6,290.6,324.8,294.8,324.8,301.2z M318.2,300.7 c0-2.3-1.9-4.1-4.1-4.1h-5.2c-0.4,0-0.6,0.2-0.6,0.6v7.6c0,0.4,0.2,0.6,0.6,0.6h5.2c2.3,0,4.1-1.8,4.1-4.1c0,0,0,0,0,0V300.7z"></path> <path class="st0" d="M335.5,326.8h-5.5c-0.4,0-0.6-0.2-0.6-0.6v-35.1c0-0.4,0.2-0.6,0.6-0.6h5.5c0.3,0,0.5,0.2,0.6,0.5 c0,0,0,0.1,0,0.1v35.1C336.1,326.6,335.9,326.8,335.5,326.8z"></path> <path class="st0" d="M364,326.8h-20.3c-0.4,0-0.6-0.2-0.6-0.6v-35.1c0-0.4,0.2-0.6,0.6-0.6H364c0.3,0,0.5,0.2,0.6,0.5 c0,0,0,0.1,0,0.1v4.9c0,0.4-0.2,0.6-0.6,0.6h-13.7c-0.4,0-0.6,0.2-0.6,0.6v7.6c0,0.4,0.2,0.6,0.6,0.6h11.2c0.4,0,0.6,0.2,0.6,0.6 v4.9c0,0.4-0.2,0.6-0.6,0.6h-11.2c-0.4,0-0.6,0.2-0.6,0.6v8.2c0,0.4,0.2,0.6,0.6,0.6H364c0.3,0,0.5,0.2,0.6,0.5c0,0,0,0.1,0,0.1 v4.9C364.6,326.6,364.5,326.8,364,326.8z"></path> <path class="st0" d="M395.5,326.3c0,0.3-0.2,0.5-0.6,0.5H389c-0.2,0-0.4-0.1-0.5-0.4l-5.1-14.6l-0.5-0.3h-5.1 c-0.4,0-0.6,0.2-0.6,0.6v14.2c0,0.4-0.2,0.6-0.6,0.6h-5.5c-0.4,0-0.6-0.2-0.6-0.6v-35.1c0-0.4,0.2-0.6,0.6-0.6h12.9 c6.5,0,10.7,4.1,10.7,10.7v0.6c-0.1,2.3-1,4.5-2.5,6.1c-1,1-2.4,1.7-2.4,2.2v0.1l5.5,15.8C395.5,326.1,395.5,326.2,395.5,326.3z M388.3,300.7c0-2.3-1.9-4.1-4.1-4.1h-6.3c-0.4,0-0.6,0.2-0.6,0.6v7.6c0,0.4,0.2,0.6,0.6,0.6h6.3c2.3,0,4.1-1.9,4.1-4.1V300.7z"></path> <path class="st0" d="M406.1,300.2c0,2.7,2.6,3.5,6.7,5.4c6.1,2.8,9,6,9,11.7c0,6.1-4.2,10.2-10.7,10.2h-2.3c-3.3,0-5.8-0.9-7.5-2.7 c-1.9-2-2.6-3.6-2.6-4.2c0-0.1,0.1-0.3,0.4-0.4l5-2.5c0.1,0,0.2-0.1,0.3-0.1c0.4,0,0.5,0.6,1.1,1.7c0.7,1.2,2,2,3.4,2.1h2.3 c2.3,0,4.1-1.9,4.1-4.1c0-2.9-2.4-3.9-6.1-5.7c-6.3-3-9.5-5.6-9.5-11.3c0-6.1,4.3-10.2,10.7-10.2h0.9c2.3-0.1,4.6,0.6,6.6,1.9 c2.2,1.6,3.7,4.2,3.7,4.9c0,0.2-0.1,0.4-0.4,0.5l-5,2.5c-0.1,0-0.2,0.1-0.3,0.1c-0.3,0-0.4-0.4-0.7-0.9c-1.1-1.8-2.1-2.9-3.9-2.9 h-0.9C407.9,296,406.1,297.9,406.1,300.2C406.1,300.2,406.1,300.2,406.1,300.2z"></path> <path class="st0" d="M58.2,376.5h-9.8c-0.3,0-0.4-0.1-0.4-0.4v-26.6c0-0.3,0.1-0.4,0.4-0.4h9.8c5,0,8.1,3.1,8.1,8.1v11.3 C66.3,373.3,63.2,376.5,58.2,376.5z M61.3,356.7c0-1.7-1.4-3.1-3.1-3.1h-4.8c-0.3,0-0.4,0.1-0.4,0.4v17.5c0,0.3,0.1,0.4,0.4,0.4 h4.8c1.7,0,3.1-1.4,3.1-3.1c0,0,0,0,0,0V356.7z"></path> <path class="st0" d="M87,376.5H71.6c-0.3,0-0.4-0.1-0.4-0.4v-26.6c0-0.3,0.1-0.4,0.4-0.4H87c0.2,0,0.4,0.1,0.4,0.3c0,0,0,0.1,0,0.1 v3.7c0,0.3-0.1,0.4-0.4,0.4H76.6c-0.3,0-0.4,0.1-0.4,0.4v5.8c0,0.3,0.1,0.4,0.4,0.4h8.5c0.3,0,0.4,0.1,0.4,0.4v3.7 c0,0.3-0.1,0.4-0.4,0.4h-8.5c-0.3,0-0.4,0.1-0.4,0.4v6.2c0,0.3,0.1,0.4,0.4,0.4H87c0.2,0,0.4,0.1,0.4,0.3c0,0,0,0.1,0,0.1v3.7 C87.5,376.4,87.3,376.5,87,376.5z"></path> <path class="st0" d="M115.6,376.5h-15.4c-0.3,0-0.4-0.1-0.4-0.4v-26.6c0-0.3,0.1-0.4,0.4-0.4h4.2c0.2,0,0.4,0.1,0.4,0.3 c0,0,0,0.1,0,0.1v22.1c0,0.3,0.1,0.4,0.4,0.4h10.4c0.2,0,0.4,0.1,0.4,0.4c0,0,0,0.1,0,0.1v3.7c0,0.2-0.1,0.4-0.3,0.4 C115.7,376.5,115.7,376.5,115.6,376.5z"></path> <path class="st0" d="M137.9,376.1c0,0.3-0.2,0.4-0.5,0.4H133c-0.3,0-0.4-0.1-0.4-0.3l-1.3-4.6c0-0.2-0.2-0.2-0.4-0.2h-6.2 c-0.3,0-0.4,0-0.4,0.2l-1.3,4.6c0,0.2-0.2,0.3-0.4,0.3H118c-0.3,0-0.5-0.1-0.5-0.4c0,0,0-0.1,0-0.2l8.2-26.7c0-0.2,0.2-0.3,0.4-0.3 h3.2c0.2,0,0.4,0.1,0.4,0.3l8.1,26.6C137.8,376,137.9,376.1,137.9,376.1z M128.2,360.4c0-0.3-0.2-1-0.5-2.4h-0.1 c-0.3,1.4-0.5,2.1-0.5,2.4l-1.5,5.8c0,0,0,0.1,0,0.2c0,0.3,0.2,0.4,0.5,0.4h3.2c0.3,0,0.5-0.1,0.5-0.4c0,0-0.1-0.1-0.1-0.2 L128.2,360.4z"></path> <path class="st1" d="M184.7,384.8h-6.1c-0.5,0-0.7-0.2-0.7-0.7l0.6-25.9l-7.5,20.5c-0.2,0.2-0.4,0.4-0.6,0.4h-3.4 c-0.3,0-0.5-0.1-0.6-0.4l-7.5-20.5l0.6,25.9c0,0.5-0.2,0.7-0.7,0.7h-6.2c-0.5,0-0.7-0.2-0.7-0.7v-40.5c0-0.5,0.2-0.7,0.7-0.7h5.7 c0.2,0.1,0.4,0.2,0.6,0.4l9.7,26.3l9.7-26.3c0.2-0.2,0.4-0.3,0.6-0.4h5.7c0.5,0,0.7,0.2,0.7,0.7v40.5 C185.4,384.6,185.2,384.8,184.7,384.8z"></path> <path class="st1" d="M208.6,385.5h-3.2c-7.5,0-12.4-4.7-12.4-11.8v-19.6c0-7,4.9-11.8,12.4-11.8h3.2c7.4,0,12.4,4.7,12.4,11.8v19.6 C220.9,380.8,216,385.5,208.6,385.5z M213.3,354.1c0.1-2.6-2-4.7-4.5-4.8c-0.1,0-0.1,0-0.2,0h-3.2c-2.6,0-4.8,2.1-4.8,4.7 c0,0,0,0,0,0.1v19.6c0,2.6,2.1,4.8,4.7,4.8c0,0,0,0,0,0h3.2c2.6,0,4.7-2,4.7-4.6c0-0.1,0-0.1,0-0.2V354.1z"></path> <path class="st1" d="M234.3,354.1c0,3.1,3.1,4,7.7,6.2c7.1,3.3,10.4,6.9,10.4,13.5c0,7-4.9,11.8-12.4,11.8h-2.7 c-3.8,0-6.6-1.1-8.6-3.1c-2.2-2.3-3-4.2-3-4.9c0-0.2,0.2-0.4,0.4-0.5l5.8-2.9c0.1-0.1,0.2-0.1,0.3-0.1c0.5,0,0.6,0.7,1.3,2 c0.8,1.4,2.3,2.3,3.9,2.4h2.7c2.6,0,4.8-2.2,4.8-4.8c0-3.3-2.8-4.5-7.1-6.6c-7.3-3.5-11-6.5-11-13.1c0-7,4.9-11.8,12.4-11.8h1 c2.7-0.1,5.4,0.7,7.6,2.2c2.6,1.9,4.2,4.9,4.2,5.6c0,0.3-0.1,0.4-0.4,0.5l-5.8,2.9c-0.1,0-0.2,0.1-0.3,0.1c-0.3,0-0.5-0.4-0.9-1 c-1.3-2.1-2.4-3.3-4.4-3.3h-1C236.4,349.2,234.3,351.4,234.3,354.1C234.3,354,234.3,354,234.3,354.1z"></path> <path class="st1" d="M282.2,384.8h-23.4c-0.5,0-0.7-0.2-0.7-0.7v-40.5c0-0.5,0.2-0.7,0.7-0.7h23.4c0.3,0,0.6,0.2,0.7,0.5 c0,0,0,0.1,0,0.1v5.6c0,0.5-0.2,0.7-0.7,0.7h-15.8c-0.5,0-0.7,0.2-0.7,0.7v8.8c0,0.5,0.2,0.7,0.7,0.7h13c0.5,0,0.7,0.2,0.7,0.7v5.6 c0,0.5-0.2,0.7-0.7,0.7h-13c-0.5,0-0.7,0.2-0.7,0.7v9.4c0,0.5,0.2,0.7,0.7,0.7h15.8c0.3,0,0.6,0.2,0.7,0.5c0,0,0,0.1,0,0.1v5.6 C282.9,384.6,282.7,384.8,282.2,384.8z"></path> <path class="st1" d="M314,384.8h-23.4c-0.5,0-0.7-0.2-0.7-0.7v-40.5c0-0.5,0.2-0.7,0.7-0.7h6.3c0.3,0,0.6,0.2,0.7,0.5 c0,0,0,0.1,0,0.1v33.5c0,0.5,0.2,0.7,0.7,0.7H314c0.3,0,0.6,0.2,0.7,0.5c0,0.1,0,0.1,0,0.2v5.6C314.6,384.6,314.4,384.8,314,384.8z "></path> <path class="st1" d="M343,384.8h-23.4c-0.5,0-0.7-0.2-0.7-0.7v-40.5c0-0.5,0.2-0.7,0.7-0.7h6.3c0.3,0,0.6,0.2,0.7,0.5 c0,0,0,0.1,0,0.1v33.5c0,0.5,0.2,0.7,0.7,0.7H343c0.3,0,0.6,0.2,0.7,0.5c0,0,0,0.1,0,0.1v5.6C343.7,384.6,343.5,384.8,343,384.8z"></path> <path class="st1" d="M373.2,384.8h-23.5c-0.5,0-0.7-0.2-0.7-0.7v-40.5c0-0.5,0.2-0.7,0.7-0.7h23.4c0.3,0,0.6,0.2,0.7,0.5 c0,0.1,0,0.1,0,0.2v5.6c0,0.5-0.2,0.7-0.7,0.7h-15.8c-0.5,0-0.7,0.2-0.7,0.7v8.8c0,0.5,0.2,0.7,0.7,0.7h13c0.5,0,0.7,0.2,0.7,0.7 v5.6c0,0.5-0.2,0.7-0.7,0.7h-12.9c-0.5,0-0.7,0.2-0.7,0.7v9.4c0,0.5,0.2,0.7,0.7,0.7h15.8c0.3,0,0.6,0.2,0.7,0.5c0,0,0,0.1,0,0.1 v5.6C373.9,384.6,373.7,384.8,373.2,384.8z"></path> <path class="st2" d="M152.3,227.8c16.3,2,60,9.8,87-17.2c0.7-0.7,1.3-1.5,1.9-2.2c2.3-2.7,4.4-5.6,6.4-8.6l0,0 c-2.4,3.3-5.4,6.2-8.7,8.6c-17.5,12.4-41.8,8.3-54.3-9.2c-4.7-6.6-7.2-14.5-7.2-22.5c0-3.7,1.1-8.1,3-12.9 c1.4-3.5,3.1-6.9,4.9-10.3c5.8-13.9,24.5-33.8,29.7-50.7c0.5-1.8,1-3.6,1.4-5.4c-4.7-14.3-4.4-29.7,0.7-43.7 C208.3,16.9,176.9,0,176.9,0c5.9,13.5,9.5,51.7-3.5,73.7c-9.5,16.1-17.9,22.8-21.8,25.3c10.9,11.7,20.8,28.2,24.2,51.4 C182.3,193.7,163.3,217.8,152.3,227.8z"></path> <polygon class="st3" points="185.3,153.6 185.3,153.6 185.3,153.6 "></polygon> <path class="st4" d="M213.3,82.6c0.5,5,1.5,10,3.1,14.8c4.1-16.9,3.7-31.4,0.7-43.7C213.8,63,212.5,72.8,213.3,82.6z"></path> <path class="st4" d="M243.9,61.3c-13.1-29.4-6-40.3-6-40.3c-9.2,9.2-16.3,20.4-20.7,32.7c3,12.3,3.4,26.8-0.7,43.7l0,0 c0.3,1,0.7,2,1.1,3.1c0,0.1,0,0.2,0.1,0.2c0.4,1.1,0.8,2.1,1.3,3.2c0.6,1.5,1.3,2.9,1.9,4.4c0.2,0.5,0.5,0.9,0.7,1.4 c0.4,0.9,0.9,1.9,1.4,2.8l0.8,1.5c0.4,0.9,0.9,1.7,1.3,2.5c0.3,0.5,0.6,1,0.8,1.5c0.4,0.8,0.9,1.6,1.3,2.4c0.3,0.5,0.5,0.9,0.8,1.4 c0.4,0.8,0.9,1.6,1.4,2.3c0.3,0.4,0.5,0.9,0.8,1.3c0.5,0.8,1,1.6,1.4,2.3l0.7,1.1l1.5,2.4l0.5,0.8c0.6,0.9,1.1,1.8,1.7,2.7l0,0l0,0 l0,0c1.6,2.3,3.1,4.6,4.6,7c0.6,1,1.2,2,1.8,2.9c0.3,0.4,0.5,0.8,0.8,1.3l0,0c5.4,9,10,18.1,11.5,25.5l0,0c0.1,0.5,0.1,0.9,0.2,1.4 c0,0.2,0.1,0.3,0.1,0.5c0.2,1.1,0.3,2.1,0.3,3.2c0,8.3-2.7,16.5-7.7,23.2c-1.9,3-4.1,5.9-6.4,8.6c-0.6,0.7-1.2,1.4-1.9,2.2 c-27,27-70.7,19.2-87,17.2c11.1-10,30.1-34.1,23.6-77.4c-3.5-23.2-13.4-39.7-24.2-51.4c-17.2-18.5-36.9-24.6-36.9-24.6 s20,28.5,9.1,68.9c-9.1,29.2-1.2,64.5,20.2,89.2l0.2,0.2c15.8,18.2,39,30.6,68.2,30.6c45.6,0,93.9-33.5,94.5-93 S257.6,92.1,243.9,61.3z"></path> </g> </svg> 