<?xml version="1.0" encoding="UTF-8"?>
<svg width="14px" height="14px" viewBox="0 0 14 14" version="1.1" xmlns="http://www.w3.org/2000/svg" xmlns:xlink="http://www.w3.org/1999/xlink">
    <title>Added Group</title>
    <g id="Page-1" stroke="none" stroke-width="1" fill="none" fill-rule="evenodd">
        <g id="added-group-black" transform="translate(-0.000000, -0.000004)" fill="#000000" fill-rule="nonzero">
            <path d="M3.00000559,0.000141652931 C2.44600683,0.000141652931 2.00000559,0.446142896 2.00000559,1.00014165 L2.00000559,3.00014165 C2.00000559,3.55415155 2.44600683,4.00015279 3.00000559,4.00015279 C3.55400992,4.00015279 4.00000559,3.55415155 4.00000559,3.00014165 L4.00000559,1.00014165 C4.00000559,0.446142896 3.55400992,0.000141652931 3.00000559,0.000141652931 Z M7.00001673,0.000141652931 C6.44601798,0.000141652931 6.00001673,0.446142896 6.00001673,1.00014165 L6.00001673,3.00014165 C6.00001673,3.55415155 6.44601798,4.00015279 7.00001673,4.00015279 C7.55402106,4.00015279 8.00001673,3.55415155 8.00001673,3.00014165 L8.00001673,1.00014165 C8.00001673,0.446142896 7.55402106,0.000141652931 7.00001673,0.000141652931 Z M11.0000279,0.000141652931 C10.4460291,0.000141652931 10.0000279,0.446142896 10.0000279,1.00014165 L10.0000279,3.00014165 C10.0000279,3.55415155 10.4460291,4.00015279 11.0000279,4.00015279 C11.5540322,4.00015279 12.0000279,3.55415155 12.0000279,3.00014165 L12.0000279,1.00014165 C12.0000279,0.446142896 11.5540322,0.000141652931 11.0000279,0.000141652931 Z M5.49435759,2.00014722 L5.49435759,3.00014722 C5.49435759,3.81201773 6.15940139,4.50014722 7.00001952,4.50014722 C7.84063765,4.50014722 8.50395893,3.81973111 8.50395893,3.00014722 L8.50395893,3.00014722 L8.50395893,2.00014722 L9.50002648,2.00014722 L9.50002648,3.00014722 C9.50002648,3.83115232 10.1690283,4.50014722 11.0000306,4.50014722 C11.831033,4.50014722 12.5000348,3.83115232 12.5000348,3.00014722 L12.5000348,3.00014722 L12.5000348,2.0626474 C13.3841586,2.28964554 14.00174,3.08735486 14.0001777,4.00014722 L14.0001777,4.00014722 L14.0001777,12.000175 C14.0001777,13.1081781 13.1080365,14.0001806 12.0000334,14.0001806 L12.0000334,14.0001806 L2.00000559,14.0001806 C0.892002501,14.0001806 -0.000138695706,13.1081781 -0.000138695706,12.000175 L-0.000138695706,12.000175 L-0.000138695706,4.00014722 C-0.00170096256,3.08735486 0.615880442,2.28964554 1.5000042,2.0626474 L1.5000042,2.0626474 L1.5000042,3.00014722 C1.5000042,3.83115232 2.16900606,4.50014722 3.00000838,4.50014722 C3.83101069,4.50014722 4.50001256,3.83115232 4.50001256,3.00014722 L4.50001256,3.00014722 L4.50001256,2.00014722 L5.49435759,2.00014722 L5.49435759,2.00014722 Z M4.35001214,5.50011082 C3.58681001,5.4233106 3.50559379,7.10677129 3.50031761,8.34749411 L3.50000977,8.50011917 C3.50000977,9.75012266 3.55000991,11.5816277 4.35001214,11.5001275 C5.35001492,11.3926272 5.20501452,11.3851272 5.50000977,11.0001261 C5.82701625,10.4501246 6.08351697,9.77512273 6.30001757,9.20012112 C6.58001835,9.12512092 6.78651893,9.18012107 7.05001966,9.25012126 C7.17502001,9.36762159 7.23152016,9.50012196 7.3500205,9.60012224 C7.79252173,9.9451232 8.56252387,10.0001233 9.10002537,10.0001233 C9.89502758,10.0001233 10.5000293,9.28512136 10.5000293,8.50011917 C10.5000293,7.62511674 9.78502728,7.000115 9.10002537,7.000115 C8.40002342,7.000115 7.90002203,7.05011514 7.3500205,7.40011611 C7.2070201,7.50011639 7.17502001,7.65011681 7.05001966,7.75011709 C6.80001896,7.81761727 6.56001829,7.87011742 6.30001757,7.80011722 C6.07501694,7.16261545 5.80001618,6.55511376 5.50000977,6.00011221 C5.20001451,5.57511103 5.34501491,5.60761112 4.35001214,5.50011082 Z" id="Shape" transform="translate(7.000019, 7.000161) rotate(-90.000000) translate(-7.000019, -7.000161) "></path>
        </g>
    </g>
</svg>
