<?xml version="1.0" encoding="UTF-8"?>
<svg width="16px" height="16px" viewBox="0 0 16 16" version="1.1" xmlns="http://www.w3.org/2000/svg" xmlns:xlink="http://www.w3.org/1999/xlink">
    <title>Artboard</title>
    <g id="Artboard" stroke="none" stroke-width="1" fill="none" fill-rule="evenodd">
        <g id="Workspace" transform="translate(0.000000, 0.571429)" fill="#fff" fill-rule="nonzero">
            <path d="M7.41031826,0 L9.21324503,1.91759229 L15.6887131,1.91759229 C15.8606321,1.91759229 16,2.05696016 16,2.22887914 L16,11.6751538 C16,11.8470728 15.8606321,11.9864407 15.6887131,11.9864407 L3.04837067,11.9864407 C2.87645168,11.9864407 2.73708382,11.8470728 2.73708382,11.6751538 L2.73708382,0.311286857 C2.73708382,0.139367873 2.87645168,0 3.04837067,0 L7.41031826,0 Z M10.4038063,3.3559992 L10.4038063,3.3611884 C9.54029457,3.3611884 8.92350048,4.10324413 8.92350048,4.81416465 C8.92350048,5.54065279 8.97284401,6.05957288 9.3182487,6.63038497 C9.41693575,6.78087181 9.56496633,6.81200701 9.66365338,6.94173703 C9.73026714,7.20119707 9.78207785,7.46065712 9.71299691,7.72011717 C9.57483504,7.77200918 9.45394339,7.83427959 9.3182487,7.8913608 C9.2763067,7.81352279 9.20475858,7.78757678 9.08633411,7.68379277 C8.72612637,7.45546792 8.3165751,7.2946027 7.93662994,7.14411586 C7.88728641,6.95211543 7.88728641,6.80681781 7.93662994,6.62519577 C8.01360584,6.53905504 8.11920098,6.48508735 8.18334758,6.40206014 C8.41032779,6.09070808 8.43006521,5.54376631 8.43006521,5.17221952 C8.43006521,4.62216422 7.95932797,4.18627135 7.44319466,4.18627135 C6.86587541,4.18627135 6.45632413,4.70519144 6.45632413,5.17221952 C6.45632413,5.6548152 6.47310093,6.02324847 6.70304176,6.40206014 C6.76718834,6.50584416 6.8841325,6.53697936 6.94975939,6.62519577 C6.99910293,6.79643941 6.99910293,6.96456952 6.94975939,7.14411586 C6.53033942,7.2997919 6.16026296,7.47622473 5.79512087,7.68379277 C5.51386277,7.8913608 5.53853453,7.79017138 5.46945359,8.4777405 C5.4151757,9.02779581 6.62162495,9.06412021 7.44319466,9.06412021 L7.52707866,9.06412021 L7.52707866,9.06412021 C7.50043315,9.20630431 7.47773513,9.39103986 7.44319466,9.73871633 C7.36424503,10.5637993 9.17021811,10.6208805 10.4038063,10.6208805 C11.6373945,10.6208805 13.4433675,10.5689885 13.3644179,9.73871633 C13.2583294,8.70087615 13.2509278,8.85136297 12.8709826,8.54520011 C12.3282039,8.20582638 11.6620663,7.93806361 11.0946157,7.71492797 C11.0206004,7.42433272 11.0748783,7.21157549 11.1439592,6.93654783 C11.2599165,6.80681781 11.3906768,6.74973659 11.4893639,6.62519577 C11.8347686,6.1659515 11.8841121,5.36681455 11.8841121,4.80897545 C11.8841121,3.9787033 11.1784997,3.3559992 10.4038063,3.3559992 Z" id="Combined-Shape"></path>
            <path d="M0.420423373,2.98618766 L0.913300963,3.0259827 C1.11539926,3.04230016 1.27109473,3.21107318 1.27109473,3.41382914 L1.27109473,13.1429475 C1.27109473,13.3578463 1.44530457,13.5320561 1.6602033,13.5320561 L12.0206376,13.5320561 C12.2355363,13.5320561 12.4097462,13.7062659 12.4097462,13.9211647 L12.4097462,14.4680343 C12.4097462,14.682933 12.2355363,14.8571429 12.0206376,14.8571429 L1.27109473,14.8571429 L0.389108571,14.8571429 C0.174209841,14.8571429 0,14.682933 0,14.4680343 L0,3.3740341 C0,3.15913537 0.174209841,2.98492553 0.389108571,2.98492553 C0.399559553,2.98492553 0.410006291,2.98534658 0.420423373,2.98618766 Z" id="Rectangle"></path>
        </g>
    </g>
</svg>
