<?xml version="1.0" encoding="UTF-8"?>
<svg width="14px" height="13px" viewBox="0 0 14 13" version="1.1" xmlns="http://www.w3.org/2000/svg" xmlns:xlink="http://www.w3.org/1999/xlink">
    <title>Workspace</title>
    <g id="Page-1" stroke="none" stroke-width="1" fill="none" fill-rule="evenodd">
        <g id="Workspace" fill="#000000">
            <path d="M6.48402848,0 L8.0615894,1.67789325 L13.727624,1.67789325 C13.8780531,1.67789325 14,1.79984014 14,1.95026925 L14,10.2157596 C14,10.3661887 13.8780531,10.4881356 13.727624,10.4881356 L2.66732434,10.4881356 C2.51689522,10.4881356 2.39494834,10.3661887 2.39494834,10.2157596 L2.39494834,0.272376 C2.39494834,0.121946889 2.51689522,-4.1645583e-16 2.66732434,0 L6.48402848,0 Z M9.1033305,2.9364993 L9.1033305,2.94103985 C8.34775775,2.94103985 7.80806292,3.59033861 7.80806292,4.21239407 C7.80806292,4.84807119 7.85123851,5.30212627 8.15346761,5.80158685 C8.23981878,5.93326283 8.36934554,5.96050613 8.45569671,6.0740199 C8.51398375,6.30104744 8.55931812,6.52807498 8.4988723,6.75510252 C8.37798066,6.80050803 8.27220047,6.85499464 8.15346761,6.9049407 C8.11676836,6.83683244 8.05416376,6.81412968 7.95054235,6.72331867 C7.63536057,6.52353443 7.27700321,6.38277736 6.9445512,6.25110138 C6.90137561,6.083101 6.90137561,5.95596558 6.9445512,5.7970463 C7.01190511,5.72167316 7.10430086,5.67445143 7.16042913,5.60180262 C7.35903682,5.32936957 7.37630706,4.85079552 7.37630706,4.52569208 C7.37630706,4.04439369 6.96441197,3.66298743 6.51279533,3.66298743 C6.00764098,3.66298743 5.64928361,4.11704251 5.64928361,4.52569208 C5.64928361,4.9479633 5.66396331,5.27034241 5.86516154,5.60180262 C5.9212898,5.69261364 6.02361594,5.71985694 6.08103947,5.7970463 C6.12421506,5.94688448 6.12421506,6.09399833 6.08103947,6.25110138 C5.71404699,6.38731791 5.39023009,6.54169664 5.07073076,6.72331867 C4.82462992,6.9049407 4.84621771,6.81639996 4.78577189,7.41802294 C4.73827874,7.89932133 5.79392183,7.93110518 6.51279533,7.93110518 L6.58619383,7.93110518 L6.58619383,7.93110518 C6.56287901,8.05551627 6.54301824,8.21715988 6.51279533,8.52137679 C6.4437144,9.24332437 8.02394085,9.29327042 9.1033305,9.29327042 C10.1827202,9.29327042 11.7629466,9.24786492 11.6938657,8.52137679 C11.6010382,7.61326663 11.5945618,7.7449426 11.2621098,7.4770501 C10.7871784,7.18009808 10.204308,6.94580566 9.70778871,6.75056197 C9.64302533,6.49629113 9.69051848,6.31012855 9.7509643,6.06947935 C9.85242692,5.95596558 9.96684223,5.90601952 10.0531934,5.7970463 C10.3554225,5.39520756 10.3985981,4.69596273 10.3985981,4.20785352 C10.3985981,3.48136539 9.78118721,2.9364993 9.1033305,2.9364993 Z" id="Combined-Shape"></path>
            <path d="M0.367870451,2.6129142 L0.799138343,2.64773486 C0.975974352,2.66201264 1.11220789,2.80968903 1.11220789,2.9871005 L1.11220789,11.5000791 C1.11220789,11.6881155 1.2646415,11.8405491 1.45267789,11.8405491 L10.5180579,11.8405491 C10.7060943,11.8405491 10.8585279,11.9929827 10.8585279,12.1810191 L10.8585279,12.65953 C10.8585279,12.8475664 10.7060943,13 10.5180579,13 L1.11220789,13 L0.34047,13 C0.152433611,13 9.69575841e-16,12.8475664 0,12.65953 L0,2.95227984 C-2.30278162e-17,2.76424345 0.152433611,2.61180984 0.34047,2.61180984 C0.349614609,2.61180984 0.358755505,2.61217826 0.367870451,2.6129142 Z" id="Rectangle"></path>
        </g>
    </g>
</svg>